<?xml version="1.0" encoding="UTF-8" standalone="no"?>
<!DOCTYPE svg PUBLIC "-//W3C//DTD SVG 1.1//EN"
 "http://www.w3.org/Graphics/SVG/1.1/DTD/svg11.dtd">
<!-- Generated by graphviz version 2.42.4 (0)
 -->
<!-- Title: compiler_explorer_architecture Pages: 1 -->
<svg width="1150pt" height="956pt"
 viewBox="0.00 0.00 1150.00 956.00" xmlns="http://www.w3.org/2000/svg" xmlns:xlink="http://www.w3.org/1999/xlink">
<g id="graph0" class="graph" transform="scale(1 1) rotate(0) translate(4 952)">
<title>compiler_explorer_architecture</title>
<polygon fill="white" stroke="transparent" points="-4,4 -4,-952 1146,-952 1146,4 -4,4"/>
<g id="clust1" class="cluster">
<title>cluster_browser</title>
<polygon fill="lightblue" stroke="black" points="8,-765 8,-940 257,-940 257,-765 8,-765"/>
<text text-anchor="middle" x="132.5" y="-924.8" font-family="Times,serif" font-size="14.00">User Interface</text>
</g>
<g id="clust2" class="cluster">
<title>cluster_backend</title>
<polygon fill="lightyellow" stroke="black" points="38,-226 38,-732 416,-732 416,-226 38,-226"/>
<text text-anchor="middle" x="227" y="-716.8" font-family="Times,serif" font-size="14.00">Backend Services</text>
</g>
<g id="clust3" class="cluster">
<title>cluster_instances</title>
<polygon fill="lightgreen" stroke="black" points="46,-397 46,-582 237,-582 237,-397 46,-397"/>
<text text-anchor="middle" x="141.5" y="-566.8" font-family="Times,serif" font-size="14.00">EC2 Instances</text>
</g>
<g id="clust4" class="cluster">
<title>cluster_compilation</title>
<polygon fill="lightcyan" stroke="black" points="245,-397 245,-701 408,-701 408,-397 245,-397"/>
<text text-anchor="middle" x="326.5" y="-685.8" font-family="Times,serif" font-size="14.00">Compilation Process</text>
</g>
<g id="clust5" class="cluster">
<title>cluster_runtime_storage</title>
<polygon fill="lightgray" stroke="black" points="139,-234 139,-334 321,-334 321,-234 139,-234"/>
<text text-anchor="middle" x="230" y="-318.8" font-family="Times,serif" font-size="14.00">Runtime Storage</text>
</g>
<g id="clust6" class="cluster">
<title>cluster_admin</title>
<polygon fill="lavender" stroke="black" points="424,-8 424,-364 1134,-364 1134,-8 424,-8"/>
<text text-anchor="middle" x="779" y="-348.8" font-family="Times,serif" font-size="14.00">Build &amp; Administration</text>
</g>
<g id="clust7" class="cluster">
<title>cluster_cicd</title>
<polygon fill="lightpink" stroke="black" points="432,-97 432,-333 663,-333 663,-97 432,-97"/>
<text text-anchor="middle" x="547.5" y="-317.8" font-family="Times,serif" font-size="14.00">CI/CD &amp; Monitoring</text>
</g>
<g id="clust8" class="cluster">
<title>cluster_build_containers</title>
<polygon fill="lightsteelblue" stroke="black" points="671,-97 671,-195 1126,-195 1126,-97 671,-97"/>
<text text-anchor="middle" x="898.5" y="-179.8" font-family="Times,serif" font-size="14.00">Build Containers</text>
</g>
<g id="clust9" class="cluster">
<title>cluster_legend</title>
<polygon fill="white" stroke="black" points="609,-484 609,-939 949,-939 949,-484 609,-484"/>
<text text-anchor="middle" x="779" y="-923.8" font-family="Times,serif" font-size="14.00">Legend</text>
</g>
<!-- user -->
<g id="node1" class="node">
<title>user</title>
<polygon fill="white" stroke="black" points="168.5,-886 93.5,-886 93.5,-848 168.5,-848 168.5,-886"/>
<text text-anchor="middle" x="131" y="-870.8" font-family="Arial" font-size="14.00">User</text>
<text text-anchor="middle" x="131" y="-855.8" font-family="Arial" font-size="14.00">(Browser)</text>
</g>
<!-- monaco -->
<g id="node2" class="node">
<title>monaco</title>
<polygon fill="white" stroke="black" points="120,-811 16,-811 16,-773 120,-773 120,-811"/>
<text text-anchor="middle" x="68" y="-795.8" font-family="Arial" font-size="14.00">Monaco Editor</text>
<text text-anchor="middle" x="68" y="-780.8" font-family="Arial" font-size="14.00">(Code Input)</text>
</g>
<!-- user&#45;&gt;monaco -->
<g id="edge1" class="edge">
<title>user&#45;&gt;monaco</title>
<path fill="none" stroke="black" d="M115.43,-847.96C107.85,-839.18 98.62,-828.48 90.31,-818.85"/>
<polygon fill="black" stroke="black" points="92.8,-816.37 83.61,-811.09 87.5,-820.95 92.8,-816.37"/>
</g>
<!-- goldenlayout -->
<g id="node3" class="node">
<title>goldenlayout</title>
<polygon fill="white" stroke="black" points="249.5,-811 138.5,-811 138.5,-773 249.5,-773 249.5,-811"/>
<text text-anchor="middle" x="194" y="-795.8" font-family="Arial" font-size="14.00">GoldenLayout</text>
<text text-anchor="middle" x="194" y="-780.8" font-family="Arial" font-size="14.00">(UI Framework)</text>
</g>
<!-- user&#45;&gt;goldenlayout -->
<g id="edge2" class="edge">
<title>user&#45;&gt;goldenlayout</title>
<path fill="none" stroke="black" d="M146.57,-847.96C154.15,-839.18 163.38,-828.48 171.69,-818.85"/>
<polygon fill="black" stroke="black" points="174.5,-820.95 178.39,-811.09 169.2,-816.37 174.5,-820.95"/>
</g>
<!-- alb -->
<g id="node4" class="node">
<title>alb</title>
<polygon fill="orange" stroke="black" points="221,-647 117,-647 117,-609 221,-609 221,-647"/>
<text text-anchor="middle" x="169" y="-631.8" font-family="Arial" font-size="14.00">Application</text>
<text text-anchor="middle" x="169" y="-616.8" font-family="Arial" font-size="14.00">Load Balancer</text>
</g>
<!-- monaco&#45;&gt;alb -->
<g id="edge3" class="edge">
<title>monaco&#45;&gt;alb</title>
<path fill="none" stroke="black" d="M79.39,-772.73C97.12,-744.29 131.43,-689.27 152.06,-656.17"/>
<polygon fill="black" stroke="black" points="155.18,-657.79 157.5,-647.45 149.24,-654.08 155.18,-657.79"/>
<text text-anchor="middle" x="126.5" y="-743.8" font-family="Times,serif" font-size="14.00">Request</text>
</g>
<!-- goldenlayout&#45;&gt;alb -->
<g id="edge4" class="edge">
<title>goldenlayout&#45;&gt;alb</title>
<path fill="none" stroke="black" d="M187.74,-772.86C185.98,-767.19 184.22,-760.89 183,-755 176.15,-721.81 172.47,-682.95 170.63,-657.26"/>
<polygon fill="black" stroke="black" points="174.11,-656.85 169.95,-647.11 167.13,-657.32 174.11,-656.85"/>
</g>
<!-- alb&#45;&gt;goldenlayout -->
<g id="edge21" class="edge">
<title>alb&#45;&gt;goldenlayout</title>
<path fill="none" stroke="blue" stroke-width="2" d="M171.85,-647.45C176.2,-675.64 184.53,-729.63 189.64,-762.77"/>
<polygon fill="blue" stroke="blue" stroke-width="2" points="186.2,-763.38 191.18,-772.73 193.11,-762.31 186.2,-763.38"/>
</g>
<!-- nginx1 -->
<g id="node5" class="node">
<title>nginx1</title>
<polygon fill="white" stroke="black" points="180,-528 126,-528 126,-492 180,-492 180,-528"/>
<text text-anchor="middle" x="153" y="-506.3" font-family="Arial" font-size="14.00">nginx</text>
</g>
<!-- alb&#45;&gt;nginx1 -->
<g id="edge5" class="edge">
<title>alb&#45;&gt;nginx1</title>
<path fill="none" stroke="black" d="M166.5,-608.88C163.89,-589.93 159.76,-559.98 156.75,-538.19"/>
<polygon fill="black" stroke="black" points="160.21,-537.67 155.38,-528.24 153.28,-538.63 160.21,-537.67"/>
</g>
<!-- nginx2 -->
<g id="node7" class="node">
<title>nginx2</title>
<polygon fill="white" stroke="black" points="108,-528 54,-528 54,-492 108,-492 108,-528"/>
<text text-anchor="middle" x="81" y="-506.3" font-family="Arial" font-size="14.00">nginx</text>
</g>
<!-- alb&#45;&gt;nginx2 -->
<g id="edge6" class="edge">
<title>alb&#45;&gt;nginx2</title>
<path fill="none" stroke="black" d="M144.12,-608.81C134.85,-601.22 124.72,-591.88 117,-582 106.52,-568.59 97.8,-551.66 91.56,-537.69"/>
<polygon fill="black" stroke="black" points="94.62,-535.96 87.47,-528.14 88.19,-538.71 94.62,-535.96"/>
</g>
<!-- express1 -->
<g id="node6" class="node">
<title>express1</title>
<polygon fill="white" stroke="black" points="229.5,-441 150.5,-441 150.5,-405 229.5,-405 229.5,-441"/>
<text text-anchor="middle" x="190" y="-419.3" font-family="Arial" font-size="14.00">Express.js</text>
</g>
<!-- nginx1&#45;&gt;express1 -->
<g id="edge7" class="edge">
<title>nginx1&#45;&gt;express1</title>
<path fill="none" stroke="black" d="M160.49,-491.8C165.65,-479.93 172.62,-463.93 178.49,-450.45"/>
<polygon fill="black" stroke="black" points="181.74,-451.74 182.52,-441.18 175.32,-448.95 181.74,-451.74"/>
</g>
<!-- express1&#45;&gt;alb -->
<g id="edge19" class="edge">
<title>express1&#45;&gt;alb</title>
<path fill="none" stroke="blue" stroke-width="2" d="M198.33,-441.05C200.64,-446.64 202.84,-452.96 204,-459 215.09,-516.61 226.07,-536.64 204,-591 202.57,-594.52 200.62,-597.88 198.35,-601.04"/>
<polygon fill="blue" stroke="blue" stroke-width="2" points="195.52,-598.97 191.8,-608.89 200.9,-603.46 195.52,-598.97"/>
</g>
<!-- queue -->
<g id="node9" class="node">
<title>queue</title>
<polygon fill="yellow" stroke="black" points="332.5,-647 269.5,-647 269.5,-609 332.5,-609 332.5,-647"/>
<text text-anchor="middle" x="301" y="-631.8" font-family="Arial" font-size="14.00">Queue</text>
<text text-anchor="middle" x="301" y="-616.8" font-family="Arial" font-size="14.00">(Max 2)</text>
</g>
<!-- express1&#45;&gt;queue -->
<g id="edge9" class="edge">
<title>express1&#45;&gt;queue</title>
<path fill="none" stroke="black" d="M229.53,-437.2C233.4,-438.49 237.28,-439.77 241,-441 265.42,-449.07 280.6,-438.4 296,-459 311.96,-480.34 307.69,-556.71 303.94,-598.75"/>
<polygon fill="black" stroke="black" points="300.44,-598.61 302.98,-608.89 307.4,-599.26 300.44,-598.61"/>
</g>
<!-- dynamodb -->
<g id="node13" class="node">
<title>dynamodb</title>
<polygon fill="white" stroke="black" points="233,-280 147,-280 147,-242 233,-242 233,-280"/>
<text text-anchor="middle" x="190" y="-264.8" font-family="Arial" font-size="14.00">DynamoDB</text>
<text text-anchor="middle" x="190" y="-249.8" font-family="Arial" font-size="14.00">(Links)</text>
</g>
<!-- express1&#45;&gt;dynamodb -->
<g id="edge14" class="edge">
<title>express1&#45;&gt;dynamodb</title>
<path fill="none" stroke="black" stroke-dasharray="1,5" d="M182.27,-404.9C180.12,-399.31 178.08,-393 177,-387 171.09,-354.12 176.9,-315.85 182.53,-290.4"/>
<polygon fill="black" stroke="black" points="186.01,-290.87 184.89,-280.34 179.2,-289.27 186.01,-290.87"/>
<text text-anchor="middle" x="218.5" y="-375.8" font-family="Times,serif" font-size="14.00">Short Links</text>
</g>
<!-- prometheus -->
<g id="node16" class="node">
<title>prometheus</title>
<polygon fill="white" stroke="black" points="530,-279 440,-279 440,-243 530,-243 530,-279"/>
<text text-anchor="middle" x="485" y="-257.3" font-family="Arial" font-size="14.00">Prometheus</text>
</g>
<!-- express1&#45;&gt;prometheus -->
<g id="edge31" class="edge">
<title>express1&#45;&gt;prometheus</title>
<path fill="none" stroke="gray" stroke-dasharray="1,5" d="M219.69,-404.94C226.49,-401.75 233.84,-398.84 241,-397 263.62,-391.18 432.78,-401.62 451,-387 479.93,-363.78 485.69,-318.6 486.13,-289.39"/>
<polygon fill="gray" stroke="gray" points="489.63,-289.03 486.08,-279.05 482.63,-289.07 489.63,-289.03"/>
<text text-anchor="middle" x="489.5" y="-375.8" font-family="Times,serif" font-size="14.00">Metrics</text>
</g>
<!-- express2 -->
<g id="node8" class="node">
<title>express2</title>
<polygon fill="white" stroke="black" points="132.5,-441 53.5,-441 53.5,-405 132.5,-405 132.5,-441"/>
<text text-anchor="middle" x="93" y="-419.3" font-family="Arial" font-size="14.00">Express.js</text>
</g>
<!-- nginx2&#45;&gt;express2 -->
<g id="edge8" class="edge">
<title>nginx2&#45;&gt;express2</title>
<path fill="none" stroke="black" d="M83.43,-491.8C85.07,-480.16 87.28,-464.55 89.15,-451.24"/>
<polygon fill="black" stroke="black" points="92.64,-451.57 90.58,-441.18 85.71,-450.59 92.64,-451.57"/>
</g>
<!-- express2&#45;&gt;alb -->
<g id="edge20" class="edge">
<title>express2&#45;&gt;alb</title>
<path fill="none" stroke="blue" stroke-width="2" d="M132.84,-437.95C153.55,-447.47 177,-462.34 189,-484 210.11,-522.1 198.04,-539.39 189,-582 187.75,-587.89 185.67,-593.95 183.32,-599.64"/>
<polygon fill="blue" stroke="blue" stroke-width="2" points="180.12,-598.21 179.19,-608.76 186.5,-601.09 180.12,-598.21"/>
</g>
<!-- express2&#45;&gt;queue -->
<g id="edge10" class="edge">
<title>express2&#45;&gt;queue</title>
<path fill="none" stroke="black" d="M132.51,-437.95C135.71,-439.01 138.91,-440.04 142,-441 170.62,-449.92 181.1,-443.9 207,-459 215.15,-463.75 215.04,-467.64 222,-474 227.13,-478.68 229.76,-478.5 234,-484 261.68,-519.88 281.55,-569.05 292.16,-599.39"/>
<polygon fill="black" stroke="black" points="288.86,-600.57 295.39,-608.91 295.49,-598.31 288.86,-600.57"/>
</g>
<!-- express2&#45;&gt;dynamodb -->
<g id="edge15" class="edge">
<title>express2&#45;&gt;dynamodb</title>
<path fill="none" stroke="black" stroke-dasharray="1,5" d="M103.38,-404.88C120.18,-377.17 153.45,-322.28 173.52,-289.19"/>
<polygon fill="black" stroke="black" points="176.61,-290.84 178.8,-280.47 170.62,-287.21 176.61,-290.84"/>
</g>
<!-- express2&#45;&gt;prometheus -->
<g id="edge32" class="edge">
<title>express2&#45;&gt;prometheus</title>
<path fill="none" stroke="gray" stroke-dasharray="1,5" d="M121.45,-404.88C127.99,-401.69 135.07,-398.8 142,-397 172.24,-389.16 396.75,-403.94 423,-387 456.72,-365.25 472.76,-319.3 479.88,-289.59"/>
<polygon fill="gray" stroke="gray" points="483.38,-289.97 482.12,-279.45 476.55,-288.46 483.38,-289.97"/>
</g>
<!-- nsjail -->
<g id="node10" class="node">
<title>nsjail</title>
<polygon fill="red" stroke="black" points="376,-528 322,-528 322,-492 376,-492 376,-528"/>
<text text-anchor="middle" x="349" y="-506.3" font-family="Arial" font-size="14.00">nsjail</text>
</g>
<!-- queue&#45;&gt;nsjail -->
<g id="edge11" class="edge">
<title>queue&#45;&gt;nsjail</title>
<path fill="none" stroke="black" d="M308.5,-608.88C316.41,-589.76 328.96,-559.43 337.99,-537.6"/>
<polygon fill="black" stroke="black" points="341.28,-538.82 341.87,-528.24 334.81,-536.14 341.28,-538.82"/>
</g>
<!-- compiler -->
<g id="node11" class="node">
<title>compiler</title>
<polygon fill="pink" stroke="black" points="387.5,-441 316.5,-441 316.5,-405 387.5,-405 387.5,-441"/>
<text text-anchor="middle" x="352" y="-419.3" font-family="Arial" font-size="14.00">Compiler</text>
</g>
<!-- nsjail&#45;&gt;compiler -->
<g id="edge12" class="edge">
<title>nsjail&#45;&gt;compiler</title>
<path fill="none" stroke="black" d="M349.61,-491.8C350.02,-480.16 350.57,-464.55 351.04,-451.24"/>
<polygon fill="black" stroke="black" points="354.54,-451.29 351.39,-441.18 347.54,-451.05 354.54,-451.29"/>
</g>
<!-- compiler&#45;&gt;express1 -->
<g id="edge17" class="edge">
<title>compiler&#45;&gt;express1</title>
<path fill="none" stroke="blue" stroke-width="2" d="M316.37,-423C293.93,-423 264.65,-423 239.92,-423"/>
<polygon fill="blue" stroke="blue" stroke-width="2" points="239.63,-419.5 229.63,-423 239.63,-426.5 239.63,-419.5"/>
<text text-anchor="middle" x="273" y="-429.8" font-family="Times,serif" font-size="14.00">Assembly</text>
</g>
<!-- compiler&#45;&gt;express2 -->
<g id="edge18" class="edge">
<title>compiler&#45;&gt;express2</title>
<path fill="none" stroke="blue" stroke-width="2" d="M335.32,-441.46C324.77,-451.72 310.18,-463.5 294.5,-469 280.03,-474.08 240.63,-471.47 225.5,-469 186.87,-462.7 178.93,-453.97 142,-441 141.9,-440.97 141.81,-440.93 141.71,-440.9"/>
<polygon fill="blue" stroke="blue" stroke-width="2" points="143.14,-437.69 132.55,-437.64 140.79,-444.29 143.14,-437.69"/>
<text text-anchor="middle" x="260" y="-462.8" font-family="Times,serif" font-size="14.00">Assembly</text>
</g>
<!-- efs -->
<g id="node12" class="node">
<title>efs</title>
<polygon fill="white" stroke="black" points="313,-280 251,-280 251,-242 313,-242 313,-280"/>
<text text-anchor="middle" x="282" y="-264.8" font-family="Arial" font-size="14.00">EFS</text>
<text text-anchor="middle" x="282" y="-249.8" font-family="Arial" font-size="14.00">(3.9TB)</text>
</g>
<!-- compiler&#45;&gt;efs -->
<g id="edge13" class="edge">
<title>compiler&#45;&gt;efs</title>
<path fill="none" stroke="black" stroke-dasharray="1,5" d="M339.51,-404.65C335.86,-399.16 332.03,-392.96 329,-387 312.67,-354.89 298.85,-315.71 290.51,-289.87"/>
<polygon fill="black" stroke="black" points="293.84,-288.81 287.48,-280.34 287.17,-290.93 293.84,-288.81"/>
<text text-anchor="middle" x="392" y="-375.8" font-family="Times,serif" font-size="14.00">Access Compilers</text>
</g>
<!-- s3 -->
<g id="node21" class="node">
<title>s3</title>
<polygon fill="lightyellow" stroke="black" points="851.5,-54 710.5,-54 710.5,-16 851.5,-16 851.5,-54"/>
<text text-anchor="middle" x="781" y="-38.8" font-family="Arial" font-size="14.00">S3 Buckets</text>
<text text-anchor="middle" x="781" y="-23.8" font-family="Arial" font-size="14.00">(Long Term Storage)</text>
</g>
<!-- dynamodb&#45;&gt;s3 -->
<g id="edge16" class="edge">
<title>dynamodb&#45;&gt;s3</title>
<path fill="none" stroke="black" stroke-dasharray="1,5" d="M188.76,-241.84C187.52,-207.85 190.22,-134.67 232,-97 266.08,-66.27 556.11,-47.39 700.29,-39.82"/>
<polygon fill="black" stroke="black" points="700.61,-43.31 710.42,-39.3 700.25,-36.32 700.61,-43.31"/>
<text text-anchor="middle" x="267" y="-119.3" font-family="Times,serif" font-size="14.00">Link Data</text>
</g>
<!-- github_actions -->
<g id="node14" class="node">
<title>github_actions</title>
<polygon fill="white" stroke="black" points="655.5,-279 548.5,-279 548.5,-243 655.5,-243 655.5,-279"/>
<text text-anchor="middle" x="602" y="-257.3" font-family="Arial" font-size="14.00">GitHub Actions</text>
</g>
<!-- gcc_container -->
<g id="node17" class="node">
<title>gcc_container</title>
<polygon fill="white" stroke="black" points="1118.5,-141 1025.5,-141 1025.5,-105 1118.5,-105 1118.5,-141"/>
<text text-anchor="middle" x="1072" y="-119.3" font-family="Arial" font-size="14.00">GCC Builder</text>
</g>
<!-- github_actions&#45;&gt;gcc_container -->
<g id="edge22" class="edge">
<title>github_actions&#45;&gt;gcc_container</title>
<path fill="none" stroke="green" stroke-dasharray="5,2" d="M655.78,-256.46C753.55,-249.22 955.88,-230.37 1016,-195 1034.1,-184.35 1048.57,-165.45 1058.27,-149.83"/>
<polygon fill="green" stroke="green" points="1061.35,-151.48 1063.41,-141.09 1055.32,-147.93 1061.35,-151.48"/>
<text text-anchor="middle" x="1049.5" y="-206.8" font-family="Times,serif" font-size="14.00">Trigger Builds</text>
</g>
<!-- rust_container -->
<g id="node18" class="node">
<title>rust_container</title>
<polygon fill="white" stroke="black" points="769,-141 679,-141 679,-105 769,-105 769,-141"/>
<text text-anchor="middle" x="724" y="-119.3" font-family="Arial" font-size="14.00">Rust Builder</text>
</g>
<!-- github_actions&#45;&gt;rust_container -->
<g id="edge23" class="edge">
<title>github_actions&#45;&gt;rust_container</title>
<path fill="none" stroke="green" stroke-dasharray="5,2" d="M620.19,-242.85C633.53,-230.03 651.87,-211.87 667,-195 680.2,-180.28 694.1,-163 704.87,-149.18"/>
<polygon fill="green" stroke="green" points="707.79,-151.12 711.14,-141.07 702.26,-146.84 707.79,-151.12"/>
</g>
<!-- msvc_container -->
<g id="node19" class="node">
<title>msvc_container</title>
<polygon fill="white" stroke="black" points="889,-141 787,-141 787,-105 889,-105 889,-141"/>
<text text-anchor="middle" x="838" y="-119.3" font-family="Arial" font-size="14.00">MSVC Builder</text>
</g>
<!-- github_actions&#45;&gt;msvc_container -->
<g id="edge24" class="edge">
<title>github_actions&#45;&gt;msvc_container</title>
<path fill="none" stroke="green" stroke-dasharray="5,2" d="M655.85,-247.86C692.58,-237.8 741.06,-220.9 778,-195 795.34,-182.84 810.67,-164.49 821.5,-149.49"/>
<polygon fill="green" stroke="green" points="824.48,-151.32 827.33,-141.12 818.74,-147.32 824.48,-151.32"/>
</g>
<!-- gpu_container -->
<g id="node20" class="node">
<title>gpu_container</title>
<polygon fill="white" stroke="black" points="1007,-141 907,-141 907,-105 1007,-105 1007,-141"/>
<text text-anchor="middle" x="957" y="-119.3" font-family="Arial" font-size="14.00">CUDA Builder</text>
</g>
<!-- github_actions&#45;&gt;gpu_container -->
<g id="edge25" class="edge">
<title>github_actions&#45;&gt;gpu_container</title>
<path fill="none" stroke="green" stroke-dasharray="5,2" d="M655.56,-258.57C718,-254.67 822.27,-241.1 898,-195 916.2,-183.92 931.4,-165.21 941.82,-149.78"/>
<polygon fill="green" stroke="green" points="944.9,-151.45 947.38,-141.15 939.02,-147.65 944.9,-151.45"/>
</g>
<!-- grafana -->
<g id="node15" class="node">
<title>grafana</title>
<polygon fill="white" stroke="black" points="518,-141 452,-141 452,-105 518,-105 518,-141"/>
<text text-anchor="middle" x="485" y="-119.3" font-family="Arial" font-size="14.00">Grafana</text>
</g>
<!-- prometheus&#45;&gt;grafana -->
<g id="edge33" class="edge">
<title>prometheus&#45;&gt;grafana</title>
<path fill="none" stroke="gray" d="M485,-242.78C485,-219.68 485,-178.43 485,-151.14"/>
<polygon fill="gray" stroke="gray" points="488.5,-151.08 485,-141.08 481.5,-151.08 488.5,-151.08"/>
</g>
<!-- gcc_container&#45;&gt;s3 -->
<g id="edge26" class="edge">
<title>gcc_container&#45;&gt;s3</title>
<path fill="none" stroke="orange" stroke-dasharray="5,2" d="M1036.21,-104.97C1029.57,-102.11 1022.63,-99.32 1016,-97 965.5,-79.31 907.31,-64.17 861.46,-53.39"/>
<polygon fill="orange" stroke="orange" points="862.11,-49.95 851.58,-51.09 860.52,-56.77 862.11,-49.95"/>
<text text-anchor="middle" x="1004" y="-75.8" font-family="Times,serif" font-size="14.00">Store</text>
</g>
<!-- rust_container&#45;&gt;s3 -->
<g id="edge27" class="edge">
<title>rust_container&#45;&gt;s3</title>
<path fill="none" stroke="orange" stroke-dasharray="5,2" d="M735.53,-104.6C743.49,-92.6 754.21,-76.42 763.24,-62.79"/>
<polygon fill="orange" stroke="orange" points="766.28,-64.54 768.89,-54.27 760.45,-60.67 766.28,-64.54"/>
</g>
<!-- msvc_container&#45;&gt;s3 -->
<g id="edge28" class="edge">
<title>msvc_container&#45;&gt;s3</title>
<path fill="none" stroke="orange" stroke-dasharray="5,2" d="M826.47,-104.6C818.51,-92.6 807.79,-76.42 798.76,-62.79"/>
<polygon fill="orange" stroke="orange" points="801.55,-60.67 793.11,-54.27 795.72,-64.54 801.55,-60.67"/>
</g>
<!-- gpu_container&#45;&gt;s3 -->
<g id="edge29" class="edge">
<title>gpu_container&#45;&gt;s3</title>
<path fill="none" stroke="orange" stroke-dasharray="5,2" d="M921.81,-104.8C894.65,-91.53 856.85,-73.06 827.25,-58.6"/>
<polygon fill="orange" stroke="orange" points="828.47,-55.3 817.95,-54.06 825.4,-61.59 828.47,-55.3"/>
</g>
<!-- s3&#45;&gt;efs -->
<g id="edge30" class="edge">
<title>s3&#45;&gt;efs</title>
<path fill="none" stroke="purple" stroke-dasharray="5,2" d="M710.27,-39.71C610.46,-46.13 434.54,-62.12 382,-97 333.08,-129.48 304.02,-194.89 290.73,-232.22"/>
<polygon fill="purple" stroke="purple" points="287.33,-231.36 287.4,-241.95 293.95,-233.62 287.33,-231.36"/>
<text text-anchor="middle" x="405" y="-119.3" font-family="Times,serif" font-size="14.00">Install</text>
</g>
<!-- legend1 -->
<g id="node22" class="node">
<title>legend1</title>
<polygon fill="black" stroke="black" points="854.5,-885 711.5,-885 711.5,-849 854.5,-849 854.5,-885"/>
<text text-anchor="middle" x="783" y="-863.3" font-family="Arial" font-size="14.00" fill="white">Solid: User Requests</text>
</g>
<!-- legend2 -->
<g id="node23" class="node">
<title>legend2</title>
<polygon fill="blue" stroke="black" points="941,-810 797,-810 797,-774 941,-774 941,-810"/>
<text text-anchor="middle" x="869" y="-788.3" font-family="Arial" font-size="14.00" fill="white">Blue: Response Flow</text>
</g>
<!-- legend1&#45;&gt;legend2 -->
<!-- legend4 -->
<g id="node25" class="node">
<title>legend4</title>
<polygon fill="orange" stroke="black" points="779,-810 617,-810 617,-774 779,-774 779,-810"/>
<text text-anchor="middle" x="698" y="-788.3" font-family="Arial" font-size="14.00">Orange: Artifact Storage</text>
</g>
<!-- legend1&#45;&gt;legend4 -->
<!-- legend3 -->
<g id="node24" class="node">
<title>legend3</title>
<polygon fill="green" stroke="black" points="941,-646 795,-646 795,-610 941,-610 941,-646"/>
<text text-anchor="middle" x="868" y="-624.3" font-family="Arial" font-size="14.00" fill="white">Green: Build Triggers</text>
</g>
<!-- legend2&#45;&gt;legend3 -->
<!-- legend5 -->
<g id="node26" class="node">
<title>legend5</title>
<polygon fill="purple" stroke="black" points="777,-646 649,-646 649,-610 777,-610 777,-646"/>
<text text-anchor="middle" x="713" y="-624.3" font-family="Arial" font-size="14.00" fill="white">Purple: Installation</text>
</g>
<!-- legend2&#45;&gt;legend5 -->
<!-- legend6 -->
<g id="node27" class="node">
<title>legend6</title>
<polygon fill="gray" stroke="black" points="849,-528 731,-528 731,-492 849,-492 849,-528"/>
<text text-anchor="middle" x="790" y="-506.3" font-family="Arial" font-size="14.00" fill="white">Grey: Monitoring</text>
</g>
<!-- legend3&#45;&gt;legend6 -->
<!-- legend4&#45;&gt;legend5 -->
<!-- legend5&#45;&gt;legend6 -->
</g>
</svg>
