<?xml version="1.0" encoding="UTF-8" standalone="no"?>
<!-- Created with Inkscape (http://www.inkscape.org/) -->
<svg
   xmlns:dc="http://purl.org/dc/elements/1.1/"
   xmlns:cc="http://creativecommons.org/ns#"
   xmlns:rdf="http://www.w3.org/1999/02/22-rdf-syntax-ns#"
   xmlns:svg="http://www.w3.org/2000/svg"
   xmlns="http://www.w3.org/2000/svg"
   xmlns:xlink="http://www.w3.org/1999/xlink"
   xmlns:sodipodi="http://sodipodi.sourceforge.net/DTD/sodipodi-0.dtd"
   xmlns:inkscape="http://www.inkscape.org/namespaces/inkscape"
   width="744.09448819"
   height="1052.3622047"
   id="svg2"
   sodipodi:version="0.32"
   inkscape:version="0.46"
   sodipodi:docname="capsule.svg"
   inkscape:output_extension="org.inkscape.output.svg.inkscape">
  <defs
     id="defs4">
    <linearGradient
       id="linearGradient4528">
      <stop
         style="stop-color:#b3b3b3;stop-opacity:1;"
         offset="0"
         id="stop4530" />
      <stop
         style="stop-color:#b3b3b3;stop-opacity:0.47413793;"
         offset="1"
         id="stop4532" />
    </linearGradient>
    <marker
       inkscape:stockid="DotL"
       orient="auto"
       refY="0.0"
       refX="0.0"
       id="DotL"
       style="overflow:visible">
      <path
         id="path3290"
         d="M -2.5,-1.0 C -2.5,1.7600000 -4.7400000,4.0 -7.5,4.0 C -10.260000,4.0 -12.5,1.7600000 -12.5,-1.0 C -12.5,-3.7600000 -10.260000,-6.0 -7.5,-6.0 C -4.7400000,-6.0 -2.5,-3.7600000 -2.5,-1.0 z "
         style="fill-rule:evenodd;stroke:#000000;stroke-width:1.0pt;marker-start:none;marker-end:none"
         transform="scale(0.8) translate(7.4, 1)" />
    </marker>
    <marker
       inkscape:stockid="Arrow1Lend"
       orient="auto"
       refY="0.0"
       refX="0.0"
       id="Arrow1Lend"
       style="overflow:visible;">
      <path
         id="path3231"
         d="M 0.0,0.0 L 5.0,-5.0 L -12.5,0.0 L 5.0,5.0 L 0.0,0.0 z "
         style="fill-rule:evenodd;stroke:#000000;stroke-width:1.0pt;marker-start:none;"
         transform="scale(0.8) rotate(180) translate(12.5,0)" />
    </marker>
    <inkscape:perspective
       sodipodi:type="inkscape:persp3d"
       inkscape:vp_x="0 : 526.18109 : 1"
       inkscape:vp_y="0 : 1000 : 0"
       inkscape:vp_z="744.09448 : 526.18109 : 1"
       inkscape:persp3d-origin="372.04724 : 350.78739 : 1"
       id="perspective10" />
    <linearGradient
       inkscape:collect="always"
       xlink:href="#linearGradient4528"
       id="linearGradient4534"
       x1="19.5"
       y1="387.4403"
       x2="675.5"
       y2="387.4403"
       gradientUnits="userSpaceOnUse"
       gradientTransform="translate(19.96875,60.000003)" />
  </defs>
  <sodipodi:namedview
     id="base"
     pagecolor="#ffffff"
     bordercolor="#666666"
     borderopacity="1.0"
     gridtolerance="10000"
     guidetolerance="10"
     objecttolerance="10"
     inkscape:pageopacity="0.0"
     inkscape:pageshadow="2"
     inkscape:zoom="0.35"
     inkscape:cx="297.60829"
     inkscape:cy="231.95047"
     inkscape:document-units="px"
     inkscape:current-layer="layer1"
     showgrid="true"
     inkscape:window-width="1439"
     inkscape:window-height="825"
     inkscape:window-x="0"
     inkscape:window-y="25">
    <inkscape:grid
       type="xygrid"
       id="grid2398" />
  </sodipodi:namedview>
  <metadata
     id="metadata7">
    <rdf:RDF>
      <cc:Work
         rdf:about="">
        <dc:format>image/svg+xml</dc:format>
        <dc:type
           rdf:resource="http://purl.org/dc/dcmitype/StillImage" />
      </cc:Work>
    </rdf:RDF>
  </metadata>
  <g
     inkscape:label="Layer 1"
     inkscape:groupmode="layer"
     id="layer1">
    <path
       sodipodi:type="arc"
       style="fill:#b3b3b3;fill-opacity:0.5120773;stroke:#000000;stroke-width:1;stroke-miterlimit:4;stroke-dasharray:none;stroke-opacity:1"
       id="path2387"
       sodipodi:cx="105.71429"
       sodipodi:cy="126.6479"
       sodipodi:rx="88.571426"
       sodipodi:ry="88.571426"
       d="M 194.28571,126.6479 A 88.571426,88.571426 0 1 1 17.14286,126.6479 A 88.571426,88.571426 0 1 1 194.28571,126.6479 z"
       transform="translate(-1462.8571,719.99999)" />
    <path
       sodipodi:type="arc"
       style="fill:#b3b3b3;fill-opacity:0.5120773;stroke:#000000;stroke-width:1;stroke-miterlimit:4;stroke-dasharray:none;stroke-opacity:1"
       id="path2402"
       sodipodi:cx="125"
       sodipodi:cy="167.36218"
       sodipodi:rx="95"
       sodipodi:ry="95"
       d="M 220,167.36218 A 95,95 0 1 1 30,167.36218 A 95,95 0 1 1 220,167.36218 z"
       transform="translate(0,-5)" />
    <path
       sodipodi:type="arc"
       style="fill:#b3b3b3;fill-opacity:0.22666667;stroke:#000000;stroke-width:1;stroke-miterlimit:4;stroke-dasharray:none;stroke-opacity:1"
       id="path2408"
       sodipodi:cx="125"
       sodipodi:cy="167.36218"
       sodipodi:rx="95"
       sodipodi:ry="95"
       d="M 220,167.36218 A 95,95 0 1 1 30,167.36218 A 95,95 0 1 1 220,167.36218 z"
       transform="translate(465,-5)" />
    <path
       style="fill:url(#linearGradient4534);fill-opacity:1;stroke:#000000;stroke-width:1;stroke-miterlimit:4;stroke-dasharray:none;stroke-opacity:1"
       d="M 134.96875,352.36218 C 82.52875,352.36218 39.96875,394.92218 39.96875,447.36218 C 39.96875,499.80218 82.52875,542.36218 134.96875,542.36218 C 134.98976,542.36218 135.01025,542.36219 135.03125,542.36218 L 135.03125,542.51843 L 600,542.51843 L 600,542.36218 C 652.42554,542.34514 694.96875,499.79168 694.96875,447.36218 C 694.96875,394.93268 652.42554,352.37923 600,352.36218 L 599.96875,352.36218 L 135.03125,352.36218 C 135.01025,352.36217 134.98976,352.36218 134.96875,352.36218 z"
       id="path2412" />
    <path
       style="fill:none;fill-rule:evenodd;stroke:#000000;stroke-width:4;stroke-linecap:butt;stroke-linejoin:miter;stroke-opacity:1;stroke-miterlimit:4;stroke-dasharray:none"
       d="M 360,32.362183 L 360,272.36218 L 360,272.36218"
       id="path2421" />
    <path
       style="fill:#b3b3b3;fill-opacity:0.5120773;stroke:#000000;stroke-width:1;stroke-miterlimit:4;stroke-dasharray:none;stroke-opacity:1"
       d="M 360,612.36218 C 309.2406,612.36218 267.73301,652.24824 265.125,702.36218 L 265,702.36218 L 265,707.36218 L 265,947.36218 L 265,952.36218 L 265.125,952.36218 C 267.73381,1002.4754 309.24114,1042.3622 360,1042.3622 C 410.75886,1042.3622 452.26619,1002.4754 454.875,952.36218 L 455,952.36218 L 455,947.36218 L 455,707.36218 L 455,702.36218 L 454.875,702.36218 C 452.26699,652.24824 410.7594,612.36218 360,612.36218 z"
       id="path2443" />
    <path
       style="fill:none;fill-rule:evenodd;stroke:#000000;stroke-width:2;stroke-linecap:butt;stroke-linejoin:miter;marker-start:url(#DotL);marker-end:url(#Arrow1Lend);stroke-miterlimit:4;stroke-dasharray:none;stroke-opacity:1"
       d="M 125.00004,842.34936 L 595.00004,842.34936"
       id="path2449" />
    <path
       style="fill:none;fill-rule:evenodd;stroke:#000000;stroke-width:1px;stroke-linecap:butt;stroke-linejoin:miter;marker-end:url(#Arrow1Lend);stroke-opacity:1;marker-start:url(#DotL)"
       d="M 120,162.36218 L 590,162.36218"
       id="path4003" />
    <path
       style="fill:none;fill-rule:evenodd;stroke:#000000;stroke-width:4;stroke-linecap:butt;stroke-linejoin:miter;stroke-miterlimit:4;stroke-dasharray:none;stroke-opacity:1"
       d="M 360,332.36218 L 360,572.36218 L 360,572.36218"
       id="path4536" />
    <path
       sodipodi:type="arc"
       style="fill:#800000;fill-opacity:0.22666668000000001;stroke:#000000;stroke-width:1;stroke-miterlimit:4;stroke-dasharray:1, 3;stroke-opacity:1;stroke-dashoffset:0"
       id="path2407"
       sodipodi:cx="125"
       sodipodi:cy="167.36218"
       sodipodi:rx="95"
       sodipodi:ry="95"
       d="M 220,167.36218 A 95,95 0 1 1 30,167.36218 A 95,95 0 1 1 220,167.36218 z"
       transform="translate(140,-5)" />
    <text
       xml:space="preserve"
       style="font-size:40px;font-style:normal;font-weight:normal;fill:#000000;fill-opacity:1;stroke:none;stroke-width:1px;stroke-linecap:butt;stroke-linejoin:miter;stroke-opacity:1;font-family:Bitstream Vera Sans"
       x="64.649765"
       y="274.54471"
       id="text3191"><tspan
         sodipodi:role="line"
         id="tspan3193"
         x="64.649765"
         y="274.54471" /></text>
    <path
       sodipodi:type="arc"
       style="fill:#800000;fill-opacity:0.22666668;stroke:#000000;stroke-width:1;stroke-miterlimit:4;stroke-dasharray:1, 3;stroke-dashoffset:0;stroke-opacity:1"
       id="path3205"
       sodipodi:cx="125"
       sodipodi:cy="167.36218"
       sodipodi:rx="95"
       sodipodi:ry="95"
       d="M 220,167.36218 A 95,95 0 1 1 30,167.36218 A 95,95 0 1 1 220,167.36218 z"
       transform="translate(135,280)" />
    <path
       sodipodi:type="arc"
       style="fill:#800000;fill-opacity:0.22666668;stroke:#000000;stroke-width:1;stroke-miterlimit:4;stroke-dasharray:1, 3;stroke-dashoffset:0;stroke-opacity:1"
       id="path3207"
       sodipodi:cx="125"
       sodipodi:cy="167.36218"
       sodipodi:rx="95"
       sodipodi:ry="95"
       d="M 220,167.36218 A 95,95 0 1 1 30,167.36218 A 95,95 0 1 1 220,167.36218 z"
       transform="translate(140,675)" />
  </g>
</svg>
